#!OML:ASF H:\ManfredETheater\Project 1\Capture day 1\Session 1\subject.ASF
:FULLY-SPECIFIED
:DEGREES
206
root 1.40712 15.9856 -3.62955 -6.04951 3.96076 0.0783005
lowerback 4.50394 -0.628279 -3.25713
upperback 0.140514 -0.966628 1.60365
thorax -2.29991 -0.439462 3.54532
lowerneck -19.0097 -1.84441 -2.42829
upperneck 23.3466 -1.90454 0.227875
head 10.6859 -1.06151 0.208926
rclavicle -2.49723e-014 4.77083e-015
rhumerus 25.6528 4.02992 -43.4304
rradius 69.2902
rwrist 9.60805
rhand 6.34239 -21.5906
rfingers 7.12502
rthumb 31.6495 -48.8662
lclavicle -2.49723e-014 4.77083e-015
lhumerus 25.1 -2.21068 59.9776
lradius 74.636
lwrist -23.3809
lhand 14.133 16.249
lfingers 7.12502
lthumb 39.0349 41.759
rfemur -15.4089 -15.9243 7.72509
rtibia 64.502
rfoot -34.1019 0.888911
rtoes -13.2046
lfemur -17.4839 5.23381 -10.5166
ltibia 64.5368
lfoot -35.4418 -3.26317
ltoes -13.0926
207
root 1.40724 15.9855 -3.62888 -6.03942 3.95424 0.0618989
lowerback 4.49371 -0.624767 -3.25166
upperback 0.139831 -0.961308 1.60632
thorax -2.29538 -0.436936 3.54448
lowerneck -19.0218 -1.85517 -2.41585
upperneck 23.3588 -1.92088 0.218843
head 10.6927 -1.06901 0.201048
rclavicle 1.59028e-015 -2.78299e-015
rhumerus 25.6591 4.00902 -43.445
rradius 69.296
rwrist 9.63836
rhand 6.35462 -21.5801
rfingers 7.12502
rthumb 31.6612 -48.8534
lclavicle 1.59028e-015 -2.78299e-015
lhumerus 25.1145 -2.21187 59.9769
lradius 74.6376
lwrist -23.3964
lhand 14.0976 16.2785
lfingers 7.12502
lthumb 39.0015 41.7981
rfemur -15.4291 -15.9184 7.75141
rtibia 64.5111
rfoot -34.1023 0.870832
rtoes -13.2278
lfemur -17.4973 5.24098 -10.4962
ltibia 64.5447
lfoot -35.4436 -3.25459
ltoes -13.0966
208
root 1.40757 15.9852 -3.62723 -6.04748 3.9534 0.066108
lowerback 4.49369 -0.618919 -3.26176
upperback 0.145525 -0.954152 1.5998
thorax -2.29005 -0.433487 3.54293
lowerneck -19.0164 -1.85859 -2.39549
upperneck 23.3531 -1.93065 0.213036
head 10.6893 -1.07235 0.194196
rclavicle 4.44781e-015 -1.27222e-014
rhumerus 25.6318 3.99341 -43.4416
rradius 69.2906
rwrist 9.63936
rhand 6.33295 -21.5418
rfingers 7.12502
rthumb 31.6405 -48.8192
lclavicle 4.44781e-015 -1.27222e-014
lhumerus 25.1296 -2.22502 59.967
lradius 74.6357
lwrist -23.4236
lhand 14.1096 16.2432
lfingers 7.12502
lthumb 39.0129 41.7595
rfemur -15.417 -15.9183 7.73624
rtibia 64.5255
rfoot -34.101 0.897676
rtoes -13.1877
lfemur -17.4818 5.24717 -10.4997
ltibia 64.5505
lfoot -35.4574 -3.26567
ltoes -13.1032
209
root 1.40828 15.9849 -3.62654 -6.0279 3.96287 0.0776354
lowerback 4.47484 -0.623643 -3.27703
upperback 0.147975 -0.960782 1.59575
thorax -2.2762 -0.436985 3.54739
lowerneck -19.0409 -1.85476 -2.3895
upperneck 23.3625 -1.92674 0.214222
head 10.6973 -1.06985 0.193953
rclavicle -2.16178e-015 3.97569e-015
rhumerus 25.6575 3.97224 -43.4662
rradius 69.2932
rwrist 9.63731
rhand 6.34695 -21.5542
rfingers 7.12502
rthumb 31.6539 -48.8289
lclavicle -2.16178e-015 3.97569e-015
lhumerus 25.1434 -2.21886 59.95
lradius 74.642
lwrist -23.408
lhand 14.1158 16.2805
lfingers 7.12502
lthumb 39.0187 41.7952
rfemur -15.4409 -15.9352 7.72322
rtibia 64.5388
rfoot -34.1042 0.877841
rtoes -13.2908
lfemur -17.5038 5.24051 -10.5192
ltibia 64.5601
lfoot -35.4611 -3.23557
ltoes -13.1647
210
root 1.40816 15.9836 -3.62649 -6.01975 3.96472 0.0712666
lowerback 4.48741 -0.622926 -3.27549
upperback 0.143308 -0.96021 1.59258
thorax -2.2882 -0.436403 3.54349
lowerneck -19.065 -1.86216 -2.37989
upperneck 23.3742 -1.93818 0.209118
head 10.7062 -1.07484 0.188575
rclavicle 1.3418e-015 -3.57812e-015
rhumerus 25.6557 3.95842 -43.4794
rradius 69.2929
rwrist 9.62736
rhand 6.3267 -21.5515
rfingers 7.12502
rthumb 31.6346 -48.83
lclavicle 1.3418e-015 -3.57812e-015
lhumerus 25.1677 -2.22068 59.9458
lradius 74.6312
lwrist -23.4117
lhand 14.1303 16.2588
lfingers 7.12502
lthumb 39.0324 41.7695
rfemur -15.4612 -15.9387 7.73276
rtibia 64.5574
rfoot -34.1038 0.885309
rtoes -13.2438
lfemur -17.5272 5.24522 -10.5103
ltibia 64.5745
lfoot -35.4552 -3.23892
ltoes -13.2273
211
root 1.40884 15.9831 -3.62538 -6.01468 3.95941 0.0868323
lowerback 4.46817 -0.621584 -3.30127
upperback 0.141986 -0.959227 1.59136
thorax -2.27847 -0.43583 3.55639
lowerneck -19.0438 -1.86451 -2.38449
upperneck 23.3748 -1.94001 0.206613
head 10.7024 -1.07646 0.188351
rclavicle -1.43622e-014 4.77083e-015
rhumerus 25.672 3.957 -43.4993
rradius 69.284
rwrist 9.63069
rhand 6.35671 -21.5409
rfingers 7.12502
rthumb 31.6632 -48.8138
lclavicle -1.43622e-014 4.77083e-015
lhumerus 25.1635 -2.22597 59.937
lradius 74.6327
lwrist -23.3863
lhand 14.1039 16.2818
lfingers 7.12502
lthumb 39.0075 41.7997
rfemur -15.4666 -15.9378 7.7079
rtibia 64.5706
rfoot -34.111 0.913257
rtoes -13.1883
lfemur -17.5259 5.25712 -10.5293
ltibia 64.5889
lfoot -35.4682 -3.23053
ltoes -13.2327
212
root 1.40863 15.9828 -3.62413 -6.01287 3.9496 0.0606873
lowerback 4.46362 -0.614891 -3.27892
upperback 0.143368 -0.948862 1.59765
thorax -2.27562 -0.430943 3.54956
lowerneck -19.0683 -1.86916 -2.39853
upperneck 23.3914 -1.94445 0.217594
head 10.7136 -1.07837 0.19371
rclavicle 2.55935e-015 7.15625e-015
rhumerus 25.6704 3.94736 -43.4864
rradius 69.2964
rwrist 9.57925
rhand 6.34913 -21.5965
rfingers 7.12502
rthumb 31.6559 -48.8708
lclavicle 2.55935e-015 7.15625e-015
lhumerus 25.1808 -2.24444 59.9298
lradius 74.6242
lwrist -23.3644
lhand 14.0831 16.2757
lfingers 7.12502
lthumb 38.9879 41.7992
rfemur -15.4787 -15.9252 7.74588
rtibia 64.5796
rfoot -34.0998 0.88597
rtoes -13.269
lfemur -17.5347 5.26978 -10.4915
ltibia 64.6033
lfoot -35.4615 -3.2603
ltoes -13.1632
213
root 1.40941 15.9818 -3.62341 -6.00364 3.96338 0.085595
lowerback 4.46352 -0.620043 -3.29459
upperback 0.136944 -0.956921 1.583
thorax -2.2815 -0.434643 3.54379
lowerneck -19.0751 -1.87015 -2.39821
upperneck 23.4018 -1.94482 0.214022
head 10.7187 -1.07899 0.192217
rclavicle 1.93815e-014 -2.34566e-014
rhumerus 25.6744 3.94701 -43.507
rradius 69.2953
rwrist 9.57511
rhand 6.40147 -21.5572
rfingers 7.12502
rthumb 31.7058 -48.8217
lclavicle 1.93815e-014 -2.34566e-014
lhumerus 25.1717 -2.24987 59.9018
lradius 74.6282
lwrist -23.3647
lhand 14.0491 16.2678
lfingers 7.12502
lthumb 38.9559 41.8004
rfemur -15.4821 -15.9389 7.70896
rtibia 64.5888
rfoot -34.1035 0.907916
rtoes -13.188
lfemur -17.5448 5.25646 -10.526
ltibia 64.616
lfoot -35.4578 -3.25422
ltoes -13.1478
